<svg width="120" height="40" viewBox="0 0 120 40" fill="none" xmlns="http://www.w3.org/2000/svg">
<path d="M84.4108 8.52071L80.8163 28.2446H84.0553C86.2278 28.2446 88.0843 26.7061 88.4793 24.5759L91.4023 8.52071H84.4108ZM61.6195 8.12623L57.867 28.2051H65.4905L66.715 21.3018L70.7439 28.2051H79.3154L79.3944 27.7712L72.9164 17.6726L81.6853 8.6785L81.7643 8.28402H73.3114L68.058 14.1223L69.2429 8.08678L61.6195 8.12623ZM45.8196 10.4931L45.8591 8.32347H39.1442L35.5892 28.2051H43.0941L44.9901 17.7515C45.4246 15.1479 47.3601 13.925 49.1771 13.925C50.5596 13.925 51.8631 14.7535 51.3891 17.2387L49.4141 28.2051H56.998L58.973 17.1992C60.237 10.1381 56.998 7.92899 52.6926 7.88955C52.6531 7.88955 52.5741 7.88955 52.5346 7.88955C50.4016 7.8501 47.7946 8.56016 45.8196 10.4931ZM88.6373 0.710059C87.2943 0.788954 86.0303 2.16962 85.7933 3.31361L84.8453 7.53452H87.1758C90.6123 7.53452 91.8368 5.2071 91.8368 3.35306C91.8368 1.97239 91.1653 0.710059 88.9138 0.710059C88.8348 0.710059 88.7163 0.710059 88.6373 0.710059ZM5.05596 0.0788955L0 28.2051H21.7643C21.9223 28.2051 22.0803 28.2051 22.2778 28.2051H27.3733C27.3733 28.2051 27.0573 34.7534 19.7103 34.3195C16.5899 34.1617 15.0494 31.4793 14.8519 29.5858H8.49243C8.88743 34.6351 13.5879 41.144 22.5543 39.7633C28.8743 38.7771 32.6267 35.6607 34.6807 28.284L38.2752 8.28402H30.6912L28.8743 18.2249C28.5583 20.0789 27.6103 22.4852 25.0428 22.4852C22.4753 22.4852 22.1593 20.355 22.5543 18.146L24.3318 8.32347H16.8269L15.0099 18.2643C14.8124 19.4083 14.8124 20.4734 14.9309 21.4596H9.32192L13.1534 0.0788955H5.05596ZM100.369 13.5306C100.803 11.0848 101.909 6.66667 107.005 6.66667C110.362 6.66667 111.784 9.23077 111.784 12.3866C111.784 16.4103 109.454 21.499 103.134 21.499H101.185H98.8282L100.369 13.5306ZM107.005 0C99.7762 0 93.6142 5.16765 92.3503 12.2682L89.4668 28.2446H101.909C113.957 28.2446 119.961 20.0394 119.961 11.4793C119.961 4.97041 115.971 0 107.005 0Z" fill="url(#paint0_linear)"/>
<defs>
<linearGradient id="paint0_linear" x1="2.23444e-07" y1="39.9513" x2="120.701" y2="33.1848" gradientUnits="userSpaceOnUse">
<stop stop-color="#7933B6"/>
<stop offset="1" stop-color="#632F92"/>
</linearGradient>
</defs>
</svg>
